# xmcd
#
# Track frame offsets:
#	182
#	18415
#	53942
#	79577
#	102377
#	133267
#
# Disc length: 2139 seconds
#
# Revision: 1
# Processed by: cddbd v1.5.2PL0 Copyright (c) Steve Scherf et al.
# Submitted via: audiograbber 1.83.01
#
DISCID=4a085906
DTITLE=Real McCoy - CD Single
DYEAR=1997
DGENRE=
TTITLE0=One More Time (US 7'' Version)
TTITLE1=One More Time (Tony Moran Extended Mix)
TTITLE2=One More Time (Bass Bumpers Mix)
TTITLE3=One More Time (Sequential One Remix)
TTITLE4=One More Time (Club Attack Mix II)
TTITLE5=One More Time (Jay Ray Remix 1)
EXTD=
EXTT0=
EXTT1=
EXTT2=
EXTT3=
EXTT4=
EXTT5=
PLAYORDER=
